<svg width="464" height="140" viewBox="0 0 464 140" fill="none" xmlns="http://www.w3.org/2000/svg">
    <path
        d="M69.7 0C33 0 2.9 28.3 0 64.3L37.5 79.8C40.7 77.6 44.5 76.4 48.6 76.4C49 76.4 49.3 76.4 49.7 76.4L66.4 52.2C66.4 52.1 66.4 52 66.4 51.9C66.4 37.4 78.2 25.5 92.8 25.5C107.3 25.5 119.2 37.3 119.2 51.9C119.2 66.5 107.4 78.3 92.8 78.3C92.6 78.3 92.4 78.3 92.2 78.3L68.4 95.3C68.4 95.6 68.4 95.9 68.4 96.2C68.4 107.1 59.5 116 48.6 116C39 116 31 109.2 29.2 100.1L2.4 89C10.7 118.4 37.7 139.9 69.7 139.9C108.3 139.9 139.6 108.6 139.6 70C139.6 31.3 108.3 0 69.7 0Z"
        fill="#E4E4E7" />
    <path
        d="M43.7999 106.1L35.2 102.6C36.7 105.8 39.3999 108.4 42.8999 109.9C50.4999 113 59.1999 109.5 62.2999 101.9C63.7999 98.2 63.7999 94.2 62.2999 90.5C60.7999 86.8 57.8999 84 54.2999 82.4C50.6999 80.9 46.7999 80.9 43.3999 82.2L52.2999 85.9C57.8999 88.2 60.5 94.6 58.2 100.2C55.8 105.8 49.3999 108.5 43.7999 106.1Z"
        fill="#E4E4E7" />
    <path
        d="M110.3 51.9C110.3 42.2 102.4 34.3 92.7 34.3C83 34.3 75.1 42.2 75.1 51.9C75.1 61.6 83 69.5 92.7 69.5C102.4 69.5 110.3 61.6 110.3 51.9ZM79.6 51.9C79.6 44.6 85.5 38.7 92.8 38.7C100.1 38.7 106 44.6 106 51.9C106 59.2 100.1 65.1 92.8 65.1C85.5 65.1 79.6 59.2 79.6 51.9Z"
        fill="#E4E4E7" />
    <path
        d="M214.3 47.9L209.6 56.1C206 53.6 201.1 52.1 196.8 52.1C191.9 52.1 188.9 54.1 188.9 57.7C188.9 62.1 194.3 63.1 202.2 66C210.8 69 215.7 72.6 215.7 80.4C215.7 91.1 207.3 97.2 195.1 97.2C189.2 97.2 182 95.7 176.6 92.3L180 83.2C184.5 85.6 189.8 86.9 194.5 86.9C200.9 86.9 204 84.5 204 81C204 77 199.4 75.8 191.9 73.3C183.4 70.4 177.4 66.7 177.4 58C177.4 48.2 185.2 42.6 196.5 42.6C204.4 42.7 210.8 45.2 214.3 47.9Z"
        fill="#E4E4E7" />
    <path d="M250.9 53.1V96.3H239.9V53.1H223.9V43.6H266.9V53.1H250.9Z" fill="#E4E4E7" />
    <path d="M290.1 53.1V64.9H311.2V74.4H290.1V86.8H314.6V96.3H279.1V43.6H314.6V53.1H290.1Z"
        fill="#E4E4E7" />
    <path
        d="M339.2 86.1L335.7 96.3H324.1L343.9 43.6H355L375.3 96.3H363.3L359.7 86.1H339.2ZM349.4 56.2L342.2 77.3H356.8L349.4 56.2Z"
        fill="#E4E4E7" />
    <path
        d="M432 64L417.6 94.8H411.3L397.2 64.3V96.3H386.6V43.6H397.1L414.8 81.7L431.9 43.6H442.6V96.3H432V64Z"
        fill="#E4E4E7" />
    <path
        d="M463.9 50.3C463.9 54.8 460.5 57.6 456.6 57.6C452.7 57.6 449.3 54.8 449.3 50.3C449.3 45.8 452.7 43 456.6 43C460.5 42.9 463.9 45.7 463.9 50.3ZM450.5 50.3C450.5 54.1 453.2 56.5 456.6 56.5C459.9 56.5 462.7 54.1 462.7 50.3C462.7 46.5 460 44.2 456.6 44.2C453.3 44.1 450.5 46.5 450.5 50.3ZM456.7 46.5C458.6 46.5 459.2 47.5 459.2 48.6C459.2 49.6 458.6 50.3 457.9 50.6L459.6 53.8H458.2L456.8 51H455.3V53.8H454.1V46.6H456.7V46.5ZM455.3 49.9H456.6C457.4 49.9 457.9 49.4 457.9 48.7C457.9 48 457.5 47.6 456.6 47.6H455.3V49.9Z"
        fill="#E4E4E7" />
</svg>